<svg xmlns="http://www.w3.org/2000/svg" width="270" height="113.7" viewBox="-376 328.3 270 113.7"><path fill="#ECECEC" d="M-373.1 330.5h25.1v75.1h-25.1zm207.9 0h25.1v75.1h-25.1z"/><path fill="#5A5A5A" d="M-124.8 381h-15.4v-1h14.4v-24.1h-14.4v-1h15.4m11.9 13.2l-2.9-3.9h1.7l2 2.9 2.1-2.9h1.6l-2.8 3.8 3.2 4.5h-1.7l-2.3-3.4-2.3 3.4h-1.7l3.1-4.4z"/><path fill="#5A5A5A" d="M-124.8 356.1h-15.4v-1h14.4V331h-14.4v-1h15.4m11.9 13.1l-2.9-3.9h1.7l2 2.9 2.1-2.9h1.6l-2.8 3.8 3.2 4.5h-1.7l-2.3-3.4-2.3 3.4h-1.7l3.1-4.4zm-11.9 63h-15.4v-1h14.4V381h-14.4v-1h15.4m11.9 13.1l-2.9-3.9h1.7l2 2.9 2.1-2.9h1.6l-2.8 3.8 3.2 4.5h-1.7l-2.3-3.4-2.3 3.4h-1.7l3.1-4.4z"/><path fill="#5A5A5A" d="M-139.7 420.9h-26v-15.3h1v14.3h24v-14.3h1m-13.1 27.3l-2.9-3.9h1.7l2 2.9 2.1-2.9h1.6l-2.8 3.8 3.2 4.5h-1.7l-2.3-3.4-2.3 3.4h-1.6l3-4.4zm-194.7-12h-26.1v-15.3h1v14.3h24.1v-14.3h1m-13.2 27.3l-2.9-3.9h1.7l2 2.9 2.1-2.9h1.6l-2.8 3.8 3.2 4.5h-1.7l-2.3-3.4-2.3 3.4h-1.6l3-4.4z"/><path fill="#ECECEC" d="M-373.1 355.4h232.9v25.1h-232.9z"/><path d="M-348 355.4h2.4v25.1h-2.4v-25.1zm6.9 0h10.6c4.2 0 8 1.5 8 6.1 0 2.6-1.8 5.1-4.4 5.6v.2c3.2.4 5.3 2.8 5.3 6.1 0 2.4-.8 7.1-9 7.1h-10.5v-25.1zm2.4 11h8.2c3.8 0 5.7-1.9 5.7-4.2 0-3.1-1.9-4.7-5.7-4.7h-8.2v8.9zm0 12.1h8.2c3.5 0 6.6-1.1 6.6-5.2 0-3.2-2.4-4.8-6.6-4.8h-8.2v10zm20.3-23.1h3.5l8.7 22 8.6-22h3.5v25.1h-2.4v-21.7h-.1l-8.6 21.7h-2.2l-8.6-21.7v21.7h-2.4v-25.1zm61 25.1h-5.5l-4.2-17.1h-.1l-4.2 17.1h-5.6l-6.6-25.1h5.6l4 17.1h.1l4.4-17.1h5.2l4.3 17.3h.1l4.1-17.3h5.4l-7 25.1zm5.7-12.6c.3-4.6 4.5-6.1 8.5-6.1 3.6 0 8 .8 8 5.2v9.4c0 1.7.2 3.3.6 4h-5.1c-.2-.6-.3-1.2-.4-1.8-1.6 1.7-3.9 2.2-6.1 2.2-3.5 0-6.2-1.7-6.2-5.4.1-8.3 12.3-3.8 12.1-7.9 0-2.1-1.5-2.5-3.2-2.5-1.9 0-3.1.8-3.3 2.7h-4.9v.2zm11.5 3.7c-.8.7-2.6.8-4.1 1.1-1.5.3-2.9.8-2.9 2.7 0 1.8 1.4 2.3 3.1 2.3 3.9 0 4-3.1 4-4.2v-1.9h-.1zm14.1-9.3h3.7v3.3h-3.7v9c0 1.7.4 2.1 2.1 2.1.6 0 1.1 0 1.5-.1v3.9c-.8.1-1.9.2-2.9.2-3.1 0-5.7-.7-5.7-4.3v-10.7h-3v-3.4h3v-5.4h5v5.4zm9.7 12.3c0 2.1 1.9 3.1 3.8 3.1 1.4 0 3.3-.6 3.3-2.3 0-1.5-2.1-2.1-5.7-2.8-2.9-.7-5.8-1.6-5.8-4.8 0-4.6 4-5.8 7.9-5.8s7.6 1.3 8 5.8h-4.7c-.1-1.9-1.6-2.5-3.4-2.5-1.1 0-2.8.2-2.8 1.7 0 1.8 2.8 2 5.7 2.7 2.9.7 5.8 1.7 5.8 5.1 0 4.8-4.2 6.3-8.3 6.3-4.2 0-8.4-1.6-8.5-6.4h4.7v-.1zm22.9-12.7c5.7 0 9.4 3.8 9.4 9.6s-3.7 9.6-9.4 9.6-9.4-3.8-9.4-9.6 3.7-9.6 9.4-9.6zm0 15.3c3.4 0 4.4-2.9 4.4-5.8s-1-5.8-4.4-5.8-4.4 2.9-4.4 5.8 1.1 5.8 4.4 5.8zm11.2-14.9h4.7v2.5h.1c1.3-2.1 3.4-3 5.5-3 5.3 0 6.6 3 6.6 7.5v11.2h-5v-10.2c0-3-.8-4.5-3.2-4.5-2.7 0-3.9 1.5-3.9 5.2v9.5h-5v-18.2h.2z"/><path fill="#E0E0E0" d="M-373.1 355.4h25.1v25.1h-25.1zm207.9 0h25.1v25.1h-25.1z"/><path fill="#C7C7C7" d="M-139.7 406.1h-2v-1h1v-1h1m-5 2h-3v-1h3v1zm-5.9 0h-3v-1h3v1zm-6 0h-3v-1h3v1zm-6 0h-3v-1h3v1zm-6 0h-3v-1h3v1zm-5.9 0h-3v-1h3v1zm-6 0h-3v-1h3v1zm-6 0h-3v-1h3v1zm-5.9 0h-3v-1h3v1zm-6 0h-3v-1h3v1zm-6 0h-3v-1h3v1zm-6 0h-3v-1h3v1zm-5.9 0h-3v-1h3v1zm-6 0h-3v-1h3v1zm-6 0h-3v-1h3v1zm-6 0h-3v-1h3v1zm-5.9 0h-3v-1h3v1zm-6 0h-3v-1h3v1zm-6 0h-3v-1h3v1zm-5.9 0h-3v-1h3v1zm-6 0h-3v-1h3v1zm-6 0h-3v-1h3v1zm-6 0h-3v-1h3v1zm-5.9 0h-3v-1h3v1zm-6 0h-3v-1h3v1zm-6 0h-3v-1h3v1zm-5.9 0h-3v-1h3v1zm-6 0h-3v-1h3v1zm-6 0h-3v-1h3v1zm-6 0h-3v-1h3v1zm-5.9 0h-3v-1h3v1zm-6 0h-3v-1h3v1zm-6 0h-3v-1h3v1zm-6 0h-3v-1h3v1zm-5.9 0h-3v-1h3v1zm-6 0h-3v-1h3v1zm-6 0h-3v-1h3v1zm-5.9 0h-3v-1h3v1zm-6 0h-2v-2h1v1h1m-1-3.9h-1v-2.9h1v2.9zm0-5.8h-1v-2.9h1v2.9zm0-5.7h-1v-2.9h1v2.9zm0-5.8h-1V381h1v2.9zm0-5.8h-1v-2.9h1v2.9zm0-5.7h-1v-2.9h1v2.9zm0-5.8h-1v-2.9h1v2.9zm0-5.8h-1v-2.9h1v2.9zm0-5.7h-1v-2.9h1v2.9zm0-5.8h-1v-2.9h1v2.9zm0-5.8h-1v-2.9h1v2.9zm0-5.7h-1v-2.9h1v2.9zm0-5.8h-1v-2h2v1h-1m227.9 0h-3v-1h3v1zm-5.9 0h-3v-1h3v1zm-6 0h-3v-1h3v1zm-6 0h-3v-1h3v1zm-6 0h-3v-1h3v1zm-5.9 0h-3v-1h3v1zm-6 0h-3v-1h3v1zm-6 0h-3v-1h3v1zm-5.9 0h-3v-1h3v1zm-6 0h-3v-1h3v1zm-6 0h-3v-1h3v1zm-6 0h-3v-1h3v1zm-5.9 0h-3v-1h3v1zm-6 0h-3v-1h3v1zm-6 0h-3v-1h3v1zm-5.9 0h-3v-1h3v1zm-6 0h-3v-1h3v1zm-6 0h-3v-1h3v1zm-6 0h-3v-1h3v1zm-5.9 0h-3v-1h3v1zm-6 0h-3v-1h3v1zm-6 0h-3v-1h3v1zm-6 0h-3v-1h3v1zm-5.9 0h-3v-1h3v1zm-6 0h-3v-1h3v1zm-6 0h-3v-1h3v1zm-5.9 0h-3v-1h3v1zm-6 0h-3v-1h3v1zm-6 0h-3v-1h3v1zm-6 0h-3v-1h3v1zm-5.9 0h-3v-1h3v1zm-6 0h-3v-1h3v1zm-6 0h-3v-1h3v1zm-6 0h-3v-1h3v1zm-5.9 0h-3v-1h3v1zm-6 0h-3v-1h3v1zm-6 0h-3v-1h3v1zm-5.9 0h-3v-1h3v1zm225.9 1h-1v-1h-1v-1h2m0 71.2h-1v-2.9h1v2.9zm0-5.8h-1v-2.9h1v2.9zm0-5.7h-1v-2.9h1v2.9zm0-5.8h-1V381h1v2.9zm0-5.8h-1v-2.9h1v2.9zm0-5.7h-1v-2.9h1v2.9zm0-5.8h-1v-2.9h1v2.9zm0-5.8h-1v-2.9h1v2.9zm0-5.7h-1v-2.9h1v2.9zm0-5.8h-1v-2.9h1v2.9zm0-5.8h-1v-2.9h1v2.9zm0-5.7h-1v-2.9h1v2.9z"/></svg>