<svg xmlns="http://www.w3.org/2000/svg" width="502.6" height="324" viewBox="-36 0 502.6 324"><pattern x="-36" y="324" width="72" height="72" patternUnits="userSpaceOnUse" id="a" viewBox="72.2 -72 72 72" overflow="visible"><g fill="none"><path d="M72.2 0h72v-72h-72zM72.2-72h72V0h-72zM72.2-72h72V0h-72z"/><g stroke="#5A5A5B" stroke-width="2.88"><path d="M144-3.6h72.5M144-18h72.5M144-32.4h72.5M144-46.8h72.5M144-61.2h72.5M144-10.8h72.5M144-25.2h72.5M144-39.6h72.5M144-54h72.5M144-68.4h72.5"/></g><g stroke="#5A5A5B" stroke-width="2.88"><path d="M72-3.6h72.5M72-18h72.5M72-32.4h72.5M72-46.8h72.5M72-61.2h72.5M72-10.8h72.5M72-25.2h72.5M72-39.6h72.5M72-54h72.5M72-68.4h72.5"/></g><g stroke="#5A5A5B" stroke-width="2.88"><path d="M0-3.6h72.5M0-18h72.5M0-32.4h72.5M0-46.8h72.5M0-61.2h72.5M0-10.8h72.5M0-25.2h72.5M0-39.6h72.5M0-54h72.5M0-68.4h72.5"/></g></g></pattern><path fill="#ECECEC" d="M-36 0h502.6v324H-36z"/><path fill="#C7C7C7" d="M91.3 125.3h256.8V324H91.3z"/><path fill="#5A5A5B" d="M100.8 135.2h237.9V217H100.8z"/><path fill="#C7C7C7" d="M-36 15.2h502.6V115H-36z"/><path fill="#ECEBEB" d="M144.9 197.1h149.7v9.8H144.9z"/><path fill="url(#b)" d="M144.9 197.1h111.8v9.8H144.9z"/><path fill="#E0E0E0" d="M144.9 159.6h105.4v5.2H144.9zM144.9 152.1h139v5.2h-139z"/><g fill="#5A5A5B"><g opacity=".75"><path d="M226.6 61.3c-1.3.8-2.5 1.6-3.8 2.4-1.3.9-2.5 1.8-3.8 2.7-.3.2-.7.5-1 .7-.3.2-.6.5-1 .7-.6.5-1.3 1-1.9 1.5-2.6 2-5.1 4-7.6 6.2-2.3 2.1-4.5 4.2-6.7 6.4l.9 1.2c2.2-2.2 4.4-4.4 6.8-6.5 2.4-2.2 4.9-4.3 7.4-6.3.6-.5 1.3-1 1.9-1.5.3-.3.6-.5 1-.7.3-.2.6-.5 1-.7 1.3-.9 2.5-1.8 3.8-2.7s2.5-1.7 3.7-2.5c.2-.1.3-.2.4-.3l-.6-.9c-.2.1-.4.2-.5.3zM248.4 50.9c-.7.3-1.4.5-2.2.8-.4.2-.8.3-1.3.5-.4.2-.9.4-1.3.5-.9.4-1.9.8-2.9 1.2-1 .5-2.1 1-3.2 1.5-.7.3-1.3.6-1.9 1 .1.2.3.3.4.5l.2.2c.6-.3 1.2-.7 1.8-.9 1.1-.6 2.1-1.1 3.1-1.6s2-.9 2.9-1.3c.5-.2.9-.4 1.3-.6.4-.2.9-.3 1.2-.5.8-.3 1.5-.6 2.2-.9.7-.3 1.3-.5 1.8-.7-.1-.1-.1-.2-.1-.3-.8.2-1.4.4-2 .6zM194.9 88.6c.3.4.6.8.9 1.3 1.6-2 3.3-3.9 5.2-5.9l-.9-1.2c-1.9 1.9-3.6 3.8-5.2 5.8zM194.1 89.6c-.4.6-.9 1.1-1.3 1.6.4.4.7.7 1.1 1 .4-.5.7-.9 1.1-1.4l-.9-1.2zM234.9 56.6c-.3.2-.7.4-1 .5l-1.8.9c-.6.3-1.2.7-1.8 1-.6.4-1.2.7-1.9 1.1-.2.1-.3.2-.5.3l.6.9c.2-.1.3-.2.5-.3.6-.4 1.2-.8 1.8-1.1.6-.4 1.2-.8 1.8-1.1.6-.3 1.2-.7 1.8-1 .4-.2.7-.4 1.1-.6 0-.1-.1-.1-.1-.2-.2 0-.3-.2-.5-.4z"/></g><g opacity=".5"><path d="M209.6 38.8c1.1 1.2 2.2 2.4 3.2 3.5-.4.5-.6 1-.7 1.6-.3 1.9 1 3.6 2.9 3.9.8.1 1.5-.1 2.2-.4 2.2 2.8 4.3 5.6 6.3 8.4.1.2.3.4.4.6.2.3.4.5.5.8.9 1.3 1.8 2.6 2.6 3.9l.6.9c2.5 3.8 4.8 7.6 6.8 11.3 3.1 5.8 5.8 11.4 7.8 16.7.1.3.2.5.3.8l.6-.6c-.1-.2-.1-.3-.2-.5-2-5.4-4.6-11.1-7.7-16.9-2-3.8-4.2-7.6-6.7-11.5l-.6-.9c-.8-1.3-1.7-2.6-2.6-3.9-.2-.3-.4-.5-.5-.8-.2-.2-.3-.4-.4-.6-2-2.9-4.1-5.7-6.3-8.5.4-.5.7-1 .8-1.7.3-1.9-1-3.6-2.9-3.9-.8-.1-1.5.1-2.2.4-1.1-1.2-2.1-2.4-3.2-3.6-1.2-1.3-2.5-2.6-3.8-3.9.3 0 .5-.1.8-.1 2.1-.3 4.2-.4 6.2-.5.5 0 1-.1 1.5-.1 1.9-.1 3.8-.1 5.7 0 4.3.1 8.3.4 12 .9.9.1 1.8.3 2.7.4.2 0 .4.1.6.1-.3-.2-.7-.4-1-.6-.8-.1-1.5-.2-2.3-.3-3.7-.5-7.8-.8-12-.9-2-.1-4.1-.1-6.3 0-.5 0-1 .1-1.5.1-1.9.1-3.8.3-5.7.5-.4.1-.8.1-1.3.2-.6-.6-1.2-1.2-1.8-1.7-.5.2-.9.4-1.4.6.5.5 1 .9 1.5 1.4-2.2.4-4.4.8-6.6 1.4-.6.4-1.1.7-1.6 1.1 2.9-.9 5.9-1.5 8.8-2 1.5 1.3 3 2.8 4.5 4.4zm3.9 5.4c.2-1.1 1.2-1.8 2.2-1.7 1.1.2 1.8 1.2 1.7 2.2-.2 1.1-1.2 1.8-2.2 1.6-1.1 0-1.8-1-1.7-2.1zM199.4 94.7c-.3-.5-.7-.9-1-1.4-.7-.9-1.4-1.9-2.1-2.9-.2-.2-.3-.4-.4-.6-.3-.4-.6-.8-.9-1.3l-.9-1.2c-.7-1.1-1.5-2.2-2.3-3.3-.1-.2-.3-.4-.4-.6-.1-.1-.1-.2-.2-.3-.6-.9-1.1-1.8-1.7-2.7-2.6-4.1-5.3-8.6-7.8-13.4.1 1.2.2 2.4.4 3.6 2.1 3.7 4.2 7.2 6.3 10.5.7 1 1.3 2 1.9 2.9.1.1.1.2.2.3s.2.2.2.3c.8 1.1 1.5 2.2 2.3 3.3.4.5.7 1 1.1 1.5.3.4.6.8.9 1.3.1.1.2.2.3.4.7 1 1.5 2 2.2 2.9.4.5.7.9 1.1 1.4l.3.3c.8.5 1.7 1 2.6 1.4l-.9-1.2c-.5-.3-.9-.7-1.2-1.2z"/></g><path d="M214.7 32.8c-.1-.1-.1-.1-.2-.1-1-1-2.1-1.9-3.1-2.8-.5.1-1 .2-1.4.3 1.1.9 2.1 1.8 3.2 2.8.5-.2 1-.2 1.5-.2zM239.3 61.9c-1.1-1.5-2.2-3.1-3.4-4.8l-.2-.2c-.1-.2-.3-.3-.4-.5-.9-1.2-1.9-2.5-2.9-3.8-.2-.3-.4-.6-.6-.8-1.6-2.1-3.4-4.2-5.3-6.4-3.3-3.9-7.1-7.9-11.4-12-.5 0-1 0-1.5.1 0 0 .1 0 .1.1 4.5 4.2 8.6 8.4 12.2 12.4 1.8 2 3.4 4 5 5.9l.3.3c.2.3.5.5.7.8 1.1 1.3 2 2.5 3 3.8.2.2.3.4.4.6 0 .1.1.1.1.2 1.3 1.7 2.5 3.3 3.6 4.8 1.1 1.6 2.1 3 3 4.3s1.7 2.5 2.3 3.5c.7 1 1.2 1.9 1.7 2.6.9 1.4 1.4 2.2 1.4 2.2s-.5-.8-1.3-2.2c-.4-.7-.9-1.6-1.6-2.7-.7-1-1.4-2.2-2.2-3.6-.9-1.6-1.9-3.1-3-4.6zM209.7 93c.2-.3.3-.6.4-.9.2-1.2-.6-2.4-1.8-2.6-.5-.1-.9 0-1.3.2-1.7-2.1-3.4-4.3-5.1-6.6l-.9-1.2c-1.1-1.5-2.1-3-3.2-4.5-.1-.1-.2-.3-.3-.4-.5-.8-1-1.5-1.5-2.3-3.7-5.6-7.3-11.6-10.4-17.9l-1.8-3.6c-.2.7-.5 1.3-.6 2 .4.8.8 1.6 1.2 2.3 3.2 6.4 6.9 12.3 10.6 18 .6.8 1.1 1.6 1.7 2.4.1.1.2.3.3.4 1.1 1.6 2.2 3.1 3.3 4.6l.9 1.2c1.7 2.2 3.4 4.3 5.1 6.4-.2.3-.4.6-.5 1-.2 1.2.6 2.4 1.8 2.6.6.1 1.1 0 1.5-.3 2.3 2.6 4.7 5 7 7.3h1.3c-2.7-2.5-5.2-5.2-7.7-8.1z"/></g><path fill="#5A5A5B" d="M217.5 29.3c19.8 0 35.9 16.1 35.9 35.9S237.3 101 217.5 101s-35.9-16-35.9-35.9 16.1-35.8 35.9-35.8m0-2.8c-10.3 0-20 4-27.3 11.3s-11.3 17-11.3 27.3 4 20 11.3 27.3 17 11.3 27.3 11.3 20-4 27.3-11.3 11.3-17 11.3-27.3-4-20-11.3-27.3-17-11.3-27.3-11.3z"/><path fill="#959595" d="M-36.3 0h503.2v15.2H-36.3z"/><g><circle fill="#07B5A0" cx="74.7" cy="176.1" r="19.5"/><path d="M77 183.2h-3v-9.5h-3.7v-2.2c2.1.1 4-.7 4.3-2.9H77v14.6z"/></g></svg>