<svg xmlns="http://www.w3.org/2000/svg" width="341.1" height="300" viewBox="0 0 341.1 300"><path fill="#323232" d="M0 0h341.1v300H0z"/><path fill="#5A5A5A" d="M79.1 39.1h262v46.8h-262z"/><g fill="#E0E0E0"><path d="M126.3 64.7c0 2.9-1.6 4.4-4.5 4.4s-4.7-1.4-4.7-4.4v-7.3h1.5v7.3c0 2 1.1 3.1 3.2 3.1 1.9 0 3-1.1 3-3.1v-7.3h1.5v7.3zM128.9 66.2c0 1.2 1.1 1.6 2.2 1.6.8 0 2-.2 2-1.2 0-2.1-5.4-.7-5.4-3.9 0-1.7 1.6-2.4 3.1-2.4 1.9 0 3.3.6 3.4 2.6h-1.4c-.1-1.1-1-1.4-1.9-1.4-.8 0-1.8.2-1.8 1.1 0 1 1.4 1.2 2.7 1.4 1.4.3 2.7.8 2.7 2.4 0 2-1.8 2.6-3.5 2.6-1.9 0-3.4-.8-3.5-2.8h1.4zM143 66.2c-.4 1.8-1.7 2.8-3.5 2.8-2.6 0-3.9-1.8-4-4.4 0-2.5 1.6-4.3 3.9-4.3 2.9 0 3.8 2.7 3.7 4.7H137c0 1.4.8 2.7 2.6 2.7 1.1 0 1.9-.5 2.1-1.6h1.3zm-1.3-2.3c-.1-1.3-1-2.3-2.4-2.3s-2.3 1.1-2.4 2.3h4.8zM144.5 60.6h1.3v1.7c.7-1.3 1.6-2 3-1.9v1.4c-2.2 0-3 1.2-3 3.3v3.7h-1.4v-8.2zM153.7 57.4h1.6l6 9.3v-9.3h1.4v11.4H161l-6-9.2v9.2h-1.4V57.4zM172.1 68.8c-.2.1-.6.2-1 .2-.7 0-1.2-.4-1.2-1.3-.8.9-1.8 1.3-2.9 1.3-1.5 0-2.7-.7-2.7-2.3 0-1.9 1.4-2.3 2.8-2.5 1.5-.3 2.8-.2 2.8-1.2 0-1.2-1-1.4-1.8-1.4-1.2 0-2 .4-2.1 1.6h-1.4c.1-2 1.6-2.8 3.5-2.8 1.5 0 3.1.3 3.1 2.3V67c0 .6 0 .9.4.9.1 0 .3 0 .4-.1v1zm-2.2-4.2c-1.1.8-4.1 0-4.1 2 0 .9.8 1.2 1.6 1.2 1.8 0 2.5-1.1 2.5-1.9v-1.3zM173.4 60.6h1.3v1.2c.6-.9 1.5-1.4 2.7-1.4 1 0 1.9.4 2.3 1.4.6-.9 1.5-1.4 2.6-1.4 1.6 0 2.8.7 2.8 2.4v6.1h-1.4v-5.4c0-1-.3-1.8-1.6-1.8s-2.2.8-2.2 2.1V69h-1.4v-5.4c0-1.1-.3-1.8-1.6-1.8-1.6 0-2.2 1.5-2.2 2.1v5.2h-1.4v-8.5zM193.8 66.2c-.4 1.8-1.7 2.8-3.5 2.8-2.6 0-3.9-1.8-4-4.4 0-2.5 1.6-4.3 3.9-4.3 2.9 0 3.8 2.7 3.7 4.7h-6.2c0 1.4.8 2.7 2.6 2.7 1.1 0 1.9-.5 2.1-1.6h1.4zm-1.3-2.3c-.1-1.3-1-2.3-2.4-2.3s-2.3 1.1-2.4 2.3h4.8z"/></g><path fill="#5A5A5A" d="M79.1 102.7h262v46.8h-262z"/><g fill="#E0E0E0"><path d="M117.2 121h5c2.3 0 3.5 1.2 3.5 3.4 0 2.1-1.2 3.4-3.5 3.4h-3.5v4.7h-1.5V121zm1.5 5.5h3c1.7 0 2.5-.7 2.5-2.1 0-1.4-.8-2.1-2.5-2.1h-3v4.2zM134.1 132.4c-.2.1-.6.2-1 .2-.7 0-1.2-.4-1.2-1.3-.8.9-1.8 1.3-2.9 1.3-1.5 0-2.7-.7-2.7-2.3 0-1.9 1.4-2.3 2.8-2.5 1.5-.3 2.8-.2 2.8-1.2 0-1.2-1-1.4-1.8-1.4-1.2 0-2 .4-2.1 1.6h-1.4c.1-2 1.6-2.8 3.5-2.8 1.5 0 3.1.3 3.1 2.3v4.3c0 .6 0 .9.4.9.1 0 .3 0 .4-.1v1zm-2.2-4.2c-1.1.8-4.1 0-4.1 2 0 .9.8 1.2 1.6 1.2 1.8 0 2.5-1.1 2.5-1.9v-1.3zM136.2 129.8c0 1.2 1.1 1.6 2.2 1.6.8 0 2-.2 2-1.2 0-2.1-5.4-.7-5.4-3.9 0-1.7 1.6-2.4 3.1-2.4 1.9 0 3.3.6 3.4 2.6h-1.4c-.1-1.1-1-1.4-1.9-1.4-.8 0-1.8.2-1.8 1.1 0 1 1.4 1.2 2.7 1.4 1.4.3 2.7.8 2.7 2.4 0 2-1.8 2.6-3.5 2.6-1.9 0-3.4-.8-3.5-2.8h1.4zM144.2 129.8c0 1.2 1.1 1.6 2.2 1.6.8 0 2-.2 2-1.2 0-2.1-5.4-.7-5.4-3.9 0-1.7 1.6-2.4 3.1-2.4 1.9 0 3.3.6 3.4 2.6h-1.4c-.1-1.1-1-1.4-1.9-1.4-.8 0-1.8.2-1.8 1.1 0 1 1.4 1.2 2.7 1.4 1.4.3 2.7.8 2.7 2.4 0 2-1.8 2.6-3.5 2.6-1.9 0-3.4-.8-3.5-2.8h1.4zM159.1 132.4h-1.4l-1.7-6.6-1.7 6.6h-1.5l-2.7-8.3h1.5l1.9 6.8 1.7-6.8h1.5l1.7 6.8 1.9-6.8h1.4l-2.6 8.3zM166 124c2.6 0 4 1.9 4 4.3s-1.4 4.3-4 4.3-4-1.9-4-4.3 1.4-4.3 4-4.3zm0 7.4c1.4 0 2.6-1.1 2.6-3.1s-1.2-3.1-2.6-3.1c-1.4 0-2.6 1.1-2.6 3.1s1.2 3.1 2.6 3.1zM171.4 124.2h1.3v1.7c.7-1.3 1.6-2 3-1.9v1.4c-2.2 0-3 1.2-3 3.3v3.7h-1.4v-8.2zM183.8 132.4h-1.4v-1.1c-.4.9-1.5 1.3-2.6 1.3-2.5 0-3.8-2-3.8-4.4s1.2-4.3 3.8-4.3c.8 0 2.1.3 2.7 1.3V121h1.4v11.4zm-3.8-1c1.8 0 2.5-1.6 2.5-3.1 0-1.6-.7-3.1-2.6-3.1-1.9 0-2.5 1.6-2.5 3.2 0 1.5.8 3 2.6 3z"/></g><path fill="#E0E0E0" d="M132.7 248h7.5v1.3h-6v3.6h5.3v1.3h-5.3v5.2h-1.5V248zM144.5 251c2.6 0 4 1.9 4 4.3s-1.4 4.3-4 4.3-4-1.9-4-4.3 1.4-4.3 4-4.3zm0 7.4c1.4 0 2.6-1.1 2.6-3.1s-1.2-3.1-2.6-3.1c-1.4 0-2.6 1.1-2.6 3.1s1.2 3.1 2.6 3.1zM149.9 251.2h1.3v1.7c.7-1.3 1.6-2 3-1.9v1.4c-2.2 0-3 1.2-3 3.3v3.7h-1.4v-8.2zM162.1 258.7c0 2.7-1.2 4.1-3.8 4.1-1.6 0-3.3-.6-3.4-2.4h1.4c0 1 1.3 1.3 2.1 1.3 1.8 0 2.5-1.3 2.5-3.1v-.6c-.5 1-1.5 1.5-2.6 1.5-2.5 0-3.7-1.9-3.7-4.2 0-2 .9-4.4 3.8-4.4 1 0 2 .5 2.5 1.4v-1.2h1.3v7.6zm-1.4-3.6c0-1.5-.6-3-2.4-3-1.7 0-2.4 1.4-2.4 3 0 1.5.5 3.2 2.3 3.2 1.8 0 2.5-1.6 2.5-3.2zM167.4 251c2.6 0 4 1.9 4 4.3s-1.4 4.3-4 4.3-4-1.9-4-4.3 1.4-4.3 4-4.3zm0 7.4c1.4 0 2.6-1.1 2.6-3.1s-1.2-3.1-2.6-3.1c-1.4 0-2.6 1.1-2.6 3.1s1.2 3.1 2.6 3.1zM174.6 251.2h1.6v1.2h-1.6v5.1c0 .6.2.7 1 .7h.6v1.2h-1c-1.4 0-2-.3-2-1.8v-5.3h-1.4v-1.2h1.4v-2.5h1.4v2.6zM181.4 251.2h1.4v1.1c.4-.9 1.5-1.3 2.6-1.3 2.5 0 3.8 2 3.8 4.4 0 2.4-1.2 4.3-3.8 4.3-.8 0-2.1-.3-2.7-1.3v4.3h-1.4v-11.5zm3.8 1c-1.8 0-2.5 1.6-2.5 3.1 0 1.6.7 3.1 2.6 3.1 1.9 0 2.5-1.6 2.5-3.2 0-1.5-.8-3-2.6-3zM197.9 259.4c-.2.1-.6.2-1 .2-.7 0-1.2-.4-1.2-1.3-.8.9-1.8 1.3-2.9 1.3-1.5 0-2.7-.7-2.7-2.3 0-1.9 1.4-2.3 2.8-2.5 1.5-.3 2.8-.2 2.8-1.2 0-1.2-1-1.4-1.8-1.4-1.2 0-2 .4-2.1 1.6h-1.4c.1-2 1.6-2.8 3.5-2.8 1.5 0 3.1.3 3.1 2.3v4.3c0 .6 0 .9.4.9.1 0 .3 0 .4-.1v1zm-2.2-4.2c-1.1.8-4.1 0-4.1 2 0 .9.8 1.2 1.6 1.2 1.8 0 2.5-1.1 2.5-1.9v-1.3zM200 256.8c0 1.2 1.1 1.6 2.2 1.6.8 0 2-.2 2-1.2 0-2.1-5.4-.7-5.4-3.9 0-1.7 1.6-2.4 3.1-2.4 1.9 0 3.3.6 3.4 2.6h-1.4c-.1-1.1-1-1.4-1.9-1.4-.8 0-1.8.2-1.8 1.1 0 1 1.4 1.2 2.7 1.4 1.4.3 2.7.8 2.7 2.4 0 2-1.8 2.6-3.5 2.6-1.9 0-3.4-.8-3.5-2.8h1.4zM208 256.8c0 1.2 1.1 1.6 2.2 1.6.8 0 2-.2 2-1.2 0-2.1-5.4-.7-5.4-3.9 0-1.7 1.6-2.4 3.1-2.4 1.9 0 3.3.6 3.4 2.6h-1.4c-.1-1.1-1-1.4-1.9-1.4-.8 0-1.8.2-1.8 1.1 0 1 1.4 1.2 2.7 1.4 1.4.3 2.7.8 2.7 2.4 0 2-1.8 2.6-3.5 2.6-1.9 0-3.4-.8-3.5-2.8h1.4zM222.9 259.4h-1.4l-1.7-6.6-1.7 6.6h-1.5l-2.7-8.3h1.5l1.9 6.8 1.7-6.8h1.5l1.7 6.8 1.9-6.8h1.4l-2.6 8.3zM229.9 251c2.6 0 4 1.9 4 4.3s-1.4 4.3-4 4.3-4-1.9-4-4.3c-.1-2.4 1.3-4.3 4-4.3zm0 7.4c1.4 0 2.6-1.1 2.6-3.1s-1.2-3.1-2.6-3.1c-1.4 0-2.6 1.1-2.6 3.1s1.1 3.1 2.6 3.1zM235.2 251.2h1.3v1.7c.7-1.3 1.6-2 3-1.9v1.4c-2.2 0-3 1.2-3 3.3v3.7h-1.4v-8.2zM247.6 259.4h-1.4v-1.1c-.4.9-1.5 1.3-2.6 1.3-2.5 0-3.8-2-3.8-4.4s1.2-4.3 3.8-4.3c.8 0 2.1.3 2.7 1.3V248h1.4v11.4zm-3.8-1c1.8 0 2.5-1.6 2.5-3.1 0-1.6-.7-3.1-2.6-3.1-1.9 0-2.5 1.6-2.5 3.2 0 1.5.8 3 2.6 3zM249.2 251.6c0-2.2 1.4-3.8 3.6-3.8 2 0 3.4 1.2 3.4 3.2 0 1.3-.7 2-1.4 2.7-.7.6-1.4 1.3-1.4 2.4v.6H252v-.8c.1-2.7 2.8-2.7 2.7-5.1-.1-1.2-.8-1.9-1.9-1.9-1.5 0-2.2 1.2-2.2 2.6h-1.4zm2.6 6.1h1.8v1.8h-1.8v-1.8z"/><path fill="#6EEDD8" d="M270.3 258c-.9 1.2-2.3 1.7-3.7 1.7-3.4 0-5.4-2.8-5.4-5.8 0-3.3 1.8-6.2 5.4-6.2 2.5 0 4.5 1.1 4.9 3.8H270c-.3-1.7-1.7-2.5-3.4-2.5-2.8 0-3.9 2.4-3.9 4.8s1.4 4.6 3.9 4.6c2.4 0 3.7-1.6 3.7-3.7h-3.6v-1.3h5v6h-1l-.4-1.4zM280.6 256.8c-.4 1.8-1.7 2.8-3.5 2.8-2.6 0-3.9-1.8-4-4.4 0-2.5 1.6-4.3 3.9-4.3 2.9 0 3.8 2.7 3.7 4.7h-6.2c0 1.4.8 2.7 2.6 2.7 1.1 0 1.9-.5 2.1-1.6h1.4zm-1.3-2.3c-.1-1.3-1-2.3-2.4-2.3s-2.3 1.1-2.4 2.3h4.8zM283.9 251.2h1.6v1.2h-1.6v5.1c0 .6.2.7 1 .7h.6v1.2h-1c-1.4 0-2-.3-2-1.8v-5.3h-1.4v-1.2h1.4v-2.5h1.4v2.6zM290.7 248h1.4v4.4c.4-1 1.6-1.4 2.6-1.4 2.2 0 2.8 1.2 2.8 3v5.4h-1.4v-5.6c0-1-.6-1.7-1.7-1.7-1.6 0-2.4 1.1-2.4 2.6v4.7h-1.4V248zM306.3 256.8c-.4 1.8-1.7 2.8-3.5 2.8-2.6 0-3.9-1.8-4-4.4 0-2.5 1.6-4.3 3.9-4.3 2.9 0 3.8 2.7 3.7 4.7h-6.2c0 1.4.8 2.7 2.6 2.7 1.1 0 1.9-.5 2.1-1.6h1.4zm-1.3-2.3c-.1-1.3-1-2.3-2.4-2.3s-2.3 1.1-2.4 2.3h4.8zM307.8 248h1.4v11.4h-1.4V248zM310.9 251.2h1.4v1.1c.4-.9 1.5-1.3 2.6-1.3 2.5 0 3.8 2 3.8 4.4 0 2.4-1.2 4.3-3.8 4.3-.8 0-2.1-.3-2.7-1.3v4.3h-1.4v-11.5zm3.9 1c-1.8 0-2.5 1.6-2.5 3.1 0 1.6.7 3.1 2.6 3.1 1.9 0 2.5-1.6 2.5-3.2-.1-1.5-.9-3-2.6-3z"/><path fill="#41D6C3" d="M79.1 165.3h262v46.8h-262z"/><g fill="#003C32"><path d="M215.3 191.3c0 1.5 1.2 2.1 2.5 2.1.9 0 2.2-.3 2.2-1.4 0-1.2-1.7-1.4-3.4-1.9-1.7-.4-3.4-1.1-3.4-3.2 0-2.4 2.2-3.5 4.3-3.5 2.4 0 4.6 1 4.6 3.7h-2.4c-.1-1.4-1-1.7-2.3-1.7-.8 0-1.7.3-1.7 1.3 0 .9.5 1 3.4 1.7.8.2 3.4.8 3.4 3.3 0 2.1-1.6 3.7-4.8 3.7-2.5 0-4.9-1.2-4.9-4.1h2.5zM223.6 183.7h2.5v11.4h-2.5v-11.4zM236.3 193.8c-.9 1.2-2 1.6-3.1 1.6-3.5 0-5.6-2.6-5.6-5.9 0-3.4 2.1-6 5.6-6 2.3 0 4.6 1.4 4.8 4h-2.4c-.3-1.3-1.2-1.9-2.4-1.9-2.3 0-3.1 1.9-3.1 3.9 0 1.9.8 3.8 3.1 3.8 1.6 0 2.6-.9 2.7-2.5h-2.5v-1.9h4.8v6.2h-1.6l-.3-1.3zM239.8 183.7h2.5l4.8 7.7v-7.7h2.4v11.4H247l-4.8-7.7v7.7h-2.4v-11.4zM255.1 183.7h2.5v11.4h-2.5v-11.4zM259.5 183.7h2.5l4.8 7.7v-7.7h2.4v11.4h-2.5l-4.8-7.7v7.7h-2.4v-11.4z"/></g><g><path fill="#6EEDD8" d="M261 266h58v2h-58z"/></g><g><path fill="#E0E0E0" d="M102.5 122.4c0-2.4-2-4.4-4.4-4.4-2.4 0-4.4 2-4.4 4.4v2c-.9 1-1.5 2.4-1.5 3.8 0 3.2 2.6 5.8 5.8 5.8s5.8-2.6 5.8-5.8c0-1.5-.6-2.8-1.5-3.8v-2zm-7.3 0c0-1.5 1.4-2.9 2.9-2.9s2.9 1.4 2.9 2.9v.8c-.9-.5-1.8-.8-2.9-.8-1.1 0-2.1.3-2.9.8v-.8zm1.8 9l-2.7-2.7 1-1 1.7 1.7 3.8-3.8 1 1-4.8 4.8z"/></g><g><circle fill="#E0E0E0" cx="98.1" cy="59.4" r="5.1"/><path fill="#E0E0E0" d="M102.5 65.9h-8.7c-1.2 0-2.2 1-2.2 2.2v2.2h13.1v-2.2c0-1.2-1-2.2-2.2-2.2z"/></g><g><circle fill="#07B5A0" cx="40.7" cy="64.1" r="19.5"/><path d="M43 71.2h-3v-9.5h-3.7v-2.2c2.1.1 4-.7 4.3-2.9H43v14.6z"/></g><g><circle fill="#07B5A0" cx="98.4" cy="255.1" r="19.5"/><path d="M93.5 253.2c-.1-3.4 1.8-5.9 5.3-5.9 2.7 0 5 1.7 5 4.6 0 4.5-4.7 4.8-6.9 7.8h6.9v2.6H93.2c0-3.4 2.1-4.8 4.6-6.6 1.3-.9 3.1-1.8 3.1-3.6 0-1.4-.9-2.3-2.2-2.3-1.8 0-2.3 1.8-2.3 3.4h-2.9z"/></g></svg>